PathFileType	4	(X/Y/Z)	none_P007_Squats1_0-2550.trc
DataRate	CameraRate	NumFrames	NumMarkers	Units	OrigDataRate	OrigDataStartFrame	OrigNumFrames
85	85	8	21	m	85	1275	2550
Frame#	Time	RHip			RKnee			RAnkle			RBigToe			RSmallToe			RHeel			LHip			LKnee			LAnkle			LBigToe			LSmallToe			LHeel			Neck			Head			Nose			RShoulder			RElbow			RWrist			LShoulder			LElbow			LWrist		
		X1	Y1	Z1	X2	Y2	Z2	X3	Y3	Z3	X4	Y4	Z4	X5	Y5	Z5	X6	Y6	Z6	X7	Y7	Z7	X8	Y8	Z8	X9	Y9	Z9	X10	Y10	Z10	X11	Y11	Z11	X12	Y12	Z12	X13	Y13	Z13	X14	Y14	Z14	X15	Y15	Z15	X16	Y16	Z16	X17	Y17	Z17	X18	Y18	Z18	X19	Y19	Z19	X20	Y20	Z20	X21	Y21	Z21
1276	15.011764705882351	0.7117428118113712	0.8643458617676667	0.4026563014899469	0.6708881339703059	0.44857233065563845	0.39952316054188136	0.7052089071248473	0.07047016120096539	0.3681282377673998	0.5271413125626465	0.007912660625025351	0.3344218475984621	0.5824748269236188	0.014599680815854736	0.2942689846391648	0.7416107543716309	0.025695796581011884	0.3802451228381121	0.7049094577902986	0.8711158939494146	0.6225605631834775	0.6749167642148408	0.45599168506206145	0.6287851790955319	0.7041494229600387	0.0634462543840906	0.6572326528997917	0.5475303979734886	0.013756770257835926	0.6964668546979966	0.5871252754876751	0.01967595745453029	0.7269491772994799	0.745308837672634	0.023179802979775368	0.6439789252944275	0.5293607436392721	1.3553157736265442	0.5004836061303314	0.34409950531958394	1.5726187989007263	0.49476244956393295	0.34819422485558665	1.3915699376943067	0.482431787844703	0.5820954893539186	1.3364494834187488	0.364330943655904	0.767022000977612	1.2863651793758966	0.3283188818616327	0.6743149928295574	1.3553258951237852	0.28383363815398815	0.5733162679179072	1.3397772097797358	0.6403607068949589	0.7993151597995588	1.2545651249639822	0.7078798698168793	0.6131810036602214	1.3527760868390821	0.7627600736541026
1277	15.023529411764706	0.710762152382248	0.8641925162632825	0.40258580291438395	0.6715122872262087	0.4486039970476979	0.3998896844492839	0.7049093647839267	0.07060164692065476	0.368084545736672	0.5275531882178905	0.00823933761829172	0.33433060729519837	0.5822814773466922	0.014797744426906975	0.29425066022453117	0.7418487169270617	0.026030585532193378	0.38006348404062756	0.705103959040868	0.8711539144853478	0.6224710946299201	0.6752914829720672	0.45571586747614845	0.6283964932312953	0.7042211172698948	0.06344501511264553	0.6573354138962153	0.5473050571667771	0.013638455382388899	0.6964316449315913	0.5873045473318479	0.019524997415935844	0.7269827170874154	0.7451275356072676	0.023208603719450886	0.6439709192925029	0.5307188359081119	1.3554391884181487	0.5000386210435289	0.3459694749207024	1.5734370346267046	0.4946018925005024	0.34847811161393544	1.3917071537742636	0.4820907322579824	0.5827867956746321	1.3373826862058036	0.36424415399704646	0.7633393538699189	1.291837644167983	0.3244338848539374	0.6753149974876033	1.3575216876415275	0.28244167623414135	0.5741134701532483	1.340322626227725	0.6402184324143365	0.8025013458738339	1.256361395136913	0.7084445933615039	0.6123619939544437	1.3544030907820557	0.7633985310769149
1278	15.03529411764706	0.7098547609638676	0.8641680367647592	0.40259098863377485	0.6720916981252226	0.44861858177267644	0.4002682345597123	0.7047116336659919	0.07069567409732978	0.3680316704921369	0.5278949432954055	0.008516973392723932	0.33422186297657125	0.5821517066454721	0.01498461162517334	0.29425623087272457	0.7420857307878401	0.026309559421460054	0.37990078448879944	0.7052956784480073	0.871321791466556	0.6223776651247402	0.6756185059970465	0.4554613922444286	0.6280718357743985	0.7042304638058651	0.06342323010817458	0.6574160010310993	0.5471546364458858	0.013539492234730445	0.6964399346917096	0.5875415955389154	0.019395150298892265	0.7270144418966323	0.7449753549268274	0.02317927524764829	0.6438916621658178	0.5319652431349198	1.3556437916797122	0.49973254398685524	0.34776438511470936	1.574285566929513	0.49442559858348306	0.34865385530868587	1.3918402909619565	0.48185374610010057	0.583655184253682	1.3381691858458957	0.36425605921993265	0.7618326539620184	1.296464723863721	0.3221379516955199	0.6760175824346824	1.3599553856670028	0.28159783202674904	0.5746957025604442	1.3407995169163203	0.6402064289930423	0.8050299640890883	1.2578223691616297	0.7092735900505496	0.6116389144050576	1.3556059700488055	0.7639970918219392
1279	15.047058823529412	0.7092328039888208	0.8643161870379452	0.402660532961637	0.672616338841999	0.44862451882863846	0.40064591854458337	0.7046398980915729	0.07076176165354527	0.36797859237715336	0.528134040759463	0.008724514687513337	0.3340961674072451	0.5820824180309156	0.01515116026321023	0.29426418310441954	0.7422553233593902	0.0265210400203974	0.37980754682661205	0.7054262378539332	0.8716330272353265	0.6223008789091719	0.675826046251207	0.455263177820683	0.6278742240287237	0.7041852997948	0.06338058617735579	0.6574536863550108	0.5470760863255026	0.013475816080772085	0.6965244524084353	0.5877694211664589	0.01931223522711204	0.7270326990528206	0.7448405000058271	0.023102529330623314	0.6437359259446508	0.5330322313888429	1.3559362976381388	0.4996152589117024	0.34937995221524876	1.5750821536521011	0.49425422309055733	0.3487439197682137	1.391984087763837	0.4817273840552291	0.584705709584495	1.3388298669853882	0.36434346648824306	0.7627725554308492	1.2998473756906823	0.32141593590671164	0.6766956737031149	1.3625809040659511	0.28156173122270894	0.5751518662001679	1.3412265585303726	0.6402541747882818	0.8068226436209143	1.258963097200082	0.7103000396732142	0.6113141964298636	1.3563485547905096	0.7645094385846285
1280	15.058823529411764	0.7090026440929428	0.8646078049740834	0.4027726037825805	0.6730564056012007	0.4486166034160334	0.40100481082850975	0.7047173336188554	0.07079431148668539	0.3679308320926011	0.528250640172796	0.00883988638333675	0.33396349200232356	0.582053396207038	0.015272585212363759	0.2942743182095893	0.7423170196304364	0.02663551175077499	0.37981207732947997	0.7054586774733931	0.8720568452013411	0.6222544418521907	0.6758793529873276	0.45514182482836846	0.6278360266702951	0.7040837811343834	0.06332105475747088	0.657436406936033	0.5470561142009058	0.013455276189716463	0.6966722515101814	0.5879090317993811	0.019293404123036522	0.7270315217276386	0.7447366991416684	0.022993678107743085	0.6435255728645404	0.5338907112940449	1.3562830518274789	0.4997019838930881	0.3507097069343585	1.5757400217568798	0.4940950802209948	0.3487891788868218	1.3921578882405552	0.4816767398361609	0.5859150387140541	1.339376976935209	0.36450576902045106	0.7653726690209012	1.3019347562514016	0.32171525006055596	0.6771385287586135	1.3655264821807809	0.28227900096650366	0.575505825390515	1.3416213052157624	0.6403262806393898	0.8079039218518483	1.2597827137202975	0.7113329540255929	0.6114518729689674	1.3567034144009738	0.7649264903851896
1281	15.070588235294116	0.709168387406569	0.8649714078225141	0.402908469752555	0.6733841418157412	0.4485852172557666	0.4013243915490957	0.7049467959636715	0.07077127276554258	0.36789117713114455	0.5282314912849847	0.008846618364756908	0.33384908027194377	0.5820509753029416	0.015318866570266917	0.2943033333283516	0.7422686355193353	0.026614323668605777	0.37991082531405673	0.7053642442310712	0.8725263751605615	0.6222512400078042	0.6757853531499264	0.45510029080508796	0.6279398293684821	0.7039206191158464	0.06325362241933291	0.6573622305575366	0.5470951453889469	0.013469502566816793	0.6968254652356275	0.5879147712641719	0.019338608317365363	0.7270124977017369	0.7446865739178063	0.0228685898302742	0.6433031598515552	0.5345370243697248	1.3566224447261044	0.4999450753729073	0.35167480851137983	1.5761932724482182	0.49395399432343134	0.3488235689730782	1.3923711346377026	0.48165506120632023	0.5872117948129744	1.3397902441456242	0.36472787743757273	0.768374350968637	1.3029888757467258	0.32226115439885983	0.6768575727672418	1.3689123267930894	0.28339900724128564	0.5757243237679942	1.3419768996425754	0.6404210684528802	0.8083602656318116	1.2602885800208907	0.712197864468807	0.6118516201094388	1.3568374451125012	0.7652568917516089
1282	15.08235294117647	0.7096669482361077	0.8653398938931265	0.40306865531974984	0.6735761177753882	0.448529038316951	0.4015852703840816	0.7052849382888068	0.07066733828510491	0.367861995700746	0.5280937214165827	0.008750163761875757	0.3337785165711111	0.582071112712458	0.01528152361954095	0.2943734577999278	0.7421415779936543	0.02643044242624715	0.3800665449398622	0.7051198672449499	0.8729717799307986	0.6223005288178184	0.6755717464935584	0.4551213602137771	0.6281334262851019	0.7037062543627937	0.06318823075868071	0.6572469750821006	0.5471908395549492	0.013501300282074339	0.6969193167515284	0.5877886147507547	0.01942982996476295	0.7269848453814263	0.7446880668208967	0.02274080069760643	0.643120254035889	0.5349911757011689	1.3569008036753016	0.5002548243880959	0.35226678456917104	1.576424129280485	0.493841565508487	0.3488616447723461	1.3926091642448115	0.48163863156052866	0.5884837877194867	1.3400407310355815	0.36497237248752973	0.770940585586993	1.3033848729275843	0.32251605128844496	0.6755008455668505	1.3727483469527122	0.28446855713193714	0.5757708403469172	1.3422654493295092	0.6405470652854798	0.8083069340270508	1.2605191353492144	0.7128104601430416	0.6122318383441826	1.3569119604859048	0.7655037733860981
1283	15.094117647058823	0.7104047535696228	0.8656592160323475	0.40325901285556626	0.6736200908423382	0.4484489307481022	0.40176679877677685	0.7056556086186989	0.07047660918590745	0.36784495524895633	0.527893303059914	0.008577247792259842	0.3337600776794959	0.5821080574281012	0.01518039054100802	0.29449888915870726	0.7419775950584361	0.02609712257150702	0.3802305527336325	0.704721638458489	0.8733370755201866	0.62239757677794	0.6752567361963516	0.45517867954705615	0.628363509972226	0.7034736840427683	0.06313106791442984	0.6571229050206602	0.5473194932390812	0.013532769826013737	0.6969264814137828	0.5875618369950367	0.019538625737327286	0.726968208365695	0.7447146838835671	0.022612575015656274	0.6430209904115225	0.5352944584311536	1.3570947613258137	0.5005433443747092	0.35255817597673694	1.5764733195787164	0.49377080530233586	0.3488978962330519	1.3928353323511282	0.48164018345728626	0.5895974242994191	1.340123322735637	0.36520086603041124	0.7728815338208586	1.3034136040745021	0.3223763349730551	0.6731036371780192	1.376921517139153	0.2851188390797571	0.5756383671307935	1.3424558649350182	0.640708170638075	0.8078683086902992	1.2605380383517175	0.7131512294325811	0.6124553151803249	1.3569911379502755	0.7656549795325823
